<svg width="60" height="60" viewBox="0 0 60 60" fill="none" xmlns="http://www.w3.org/2000/svg">
<rect opacity="0.2" width="60" height="60" rx="30" fill="#4365D5"/>
<rect x="5" y="5" width="50" height="50" rx="25" fill="#4365D5"/>
<path d="M30 23.75V21.25C30 19.875 28.875 18.75 27.5 18.75H20C18.625 18.75 17.5 19.875 17.5 21.25V38.75C17.5 40.125 18.625 41.25 20 41.25H40C41.375 41.25 42.5 40.125 42.5 38.75V26.25C42.5 24.875 41.375 23.75 40 23.75H30ZM22.5 38.75H20V36.25H22.5V38.75ZM22.5 33.75H20V31.25H22.5V33.75ZM22.5 28.75H20V26.25H22.5V28.75ZM22.5 23.75H20V21.25H22.5V23.75ZM27.5 38.75H25V36.25H27.5V38.75ZM27.5 33.75H25V31.25H27.5V33.75ZM27.5 28.75H25V26.25H27.5V28.75ZM27.5 23.75H25V21.25H27.5V23.75ZM38.75 38.75H30V36.25H32.5V33.75H30V31.25H32.5V28.75H30V26.25H38.75C39.4375 26.25 40 26.8125 40 27.5V37.5C40 38.1875 39.4375 38.75 38.75 38.75ZM37.5 28.75H35V31.25H37.5V28.75ZM37.5 33.75H35V36.25H37.5V33.75Z" fill="white"/>
</svg>
