<svg width="50" height="50" viewBox="0 0 50 50" fill="none" xmlns="http://www.w3.org/2000/svg">
<path fill-rule="evenodd" clip-rule="evenodd" d="M0 25.633C0 11.476 11.1948 0 25.0003 0C38.8069 0 50 11.476 50 25.633C50 36.9546 42.846 46.5595 32.9179 49.9525C31.6507 50.2043 31.2007 49.405 31.2007 48.723C31.2007 48.4442 31.2038 47.9566 31.2081 47.3051L31.2081 47.3018L31.2081 47.2968L31.2081 47.2963C31.2167 45.9742 31.2296 43.981 31.2296 41.6886C31.2296 39.2973 30.4307 37.7372 29.5339 36.9417C35.101 36.307 40.9495 34.1394 40.9495 24.2942C40.9495 21.4957 39.9793 19.209 38.3764 17.414C38.6362 16.7679 39.4923 14.1612 38.1312 10.6305C38.1312 10.6305 36.035 9.94155 31.2632 13.2579C29.2653 12.69 27.1249 12.4052 25.0003 12.3954C22.8757 12.4052 20.737 12.69 18.7428 13.2579C13.9653 9.94155 11.8659 10.6305 11.8659 10.6305C10.5084 14.1612 11.3642 16.7679 11.6237 17.414C10.0245 19.209 9.04784 21.4957 9.04784 24.2942C9.04784 34.116 14.8852 36.314 20.4381 36.9622C19.7231 37.6018 19.0752 38.7331 18.8508 40.3897C17.4242 41.0445 13.8055 42.1775 11.5757 38.2595C11.5757 38.2595 10.2538 35.7976 7.74336 35.6174C7.74336 35.6174 5.30411 35.5848 7.57237 37.1758C7.57237 37.1758 9.21097 37.9636 10.3482 40.9261C10.3482 40.9261 11.8158 45.5011 18.7709 43.9508C18.7768 45.1132 18.7863 46.2396 18.7937 47.1243L18.7937 47.1257L18.7938 47.1262V47.1264V47.1267V47.127V47.1273V47.1275V47.1279L18.7938 47.1283C18.8 47.8716 18.8049 48.4439 18.8049 48.723C18.8049 49.4001 18.3462 50.1932 17.0967 49.956C7.16335 46.5668 0 36.9584 0 25.633ZM9.04034 36.8813C9.21837 36.9688 9.41378 36.9309 9.46884 36.8032C9.53176 36.6757 9.42827 36.5004 9.24652 36.4163C9.06561 36.3292 8.86977 36.3657 8.81595 36.4966C8.75716 36.6243 8.85903 36.7979 9.04034 36.8813ZM10.4814 37.9612C10.3622 38.0747 10.1291 38.0219 9.97095 37.8428C9.80745 37.6643 9.7768 37.4251 9.8977 37.3101C10.0206 37.1973 10.2467 37.2504 10.4106 37.4285C10.5742 37.6094 10.606 37.8466 10.4814 37.9612ZM10.9087 39.2164C11.0635 39.4445 11.314 39.5466 11.4672 39.4376C11.6237 39.3261 11.6236 39.0525 11.4709 38.8209C11.314 38.5949 11.0672 38.4963 10.912 38.6056C10.7555 38.715 10.7555 38.9886 10.9087 39.2164ZM12.8178 40.864C12.6807 41.0188 12.3889 40.9772 12.1752 40.7657C11.9567 40.5591 11.8958 40.2657 12.0332 40.1108C12.1719 39.9556 12.4655 39.9994 12.6807 40.2088C12.8976 40.4154 12.9639 40.7105 12.8178 40.864ZM14.0559 41.8987C14.3391 41.9841 14.6202 41.8928 14.6807 41.6921C14.7395 41.4879 14.554 41.2542 14.2716 41.1667C13.9864 41.0758 13.704 41.1706 13.6453 41.3727C13.5881 41.5758 13.7732 41.8108 14.0559 41.8987ZM16.7265 41.8455C16.7336 42.057 16.4934 42.2323 16.1962 42.2362C15.8973 42.2428 15.6555 42.0719 15.6522 41.8639C15.6522 41.6504 15.8869 41.4768 16.1858 41.4716C16.4831 41.4657 16.7265 41.6355 16.7265 41.8455ZM18.1645 41.9879C18.4597 41.9313 18.6662 41.7195 18.6307 41.5133C18.593 41.3035 18.3284 41.1796 18.0329 41.2324C17.743 41.2869 17.5327 41.4987 17.5688 41.7101C17.6056 41.915 17.8743 42.0421 18.1645 41.9879Z" fill="#1B1817"/>
</svg>
