<svg width="306" height="319" viewBox="0 0 306 319" fill="none" xmlns="http://www.w3.org/2000/svg">
<path d="M66.0253 276.333V277.36H42.952V276.333L43.9733 276.253C46.0173 276.147 47.4933 275.547 48.4013 274.467C49.3093 273.387 49.7626 271.68 49.7626 269.36V247.307H17.1547V269.36C17.1547 271.68 17.6093 273.387 18.5173 274.467C19.4253 275.547 20.9013 276.147 22.9453 276.253L23.9666 276.333V277.36H0.893311V276.333L1.91465 276.253C3.95731 276.147 5.43466 275.547 6.34132 274.467C7.25066 273.387 7.70532 271.68 7.70532 269.36V226.027C7.70532 223.693 7.25066 221.987 6.34132 220.92C5.43466 219.84 3.95731 219.24 1.91465 219.12L0.893311 219.04V218.013H23.9666V219.04L22.9453 219.12C20.9013 219.24 19.4253 219.84 18.5173 220.92C17.6093 222.013 17.1547 223.707 17.1547 226.053V245.093H49.7626V226.053C49.7626 223.707 49.3093 222.013 48.4013 220.92C47.4933 219.84 46.0173 219.24 43.9733 219.12L42.952 219.04V218.013H66.0253V219.04L65.004 219.12C62.96 219.24 61.484 219.84 60.576 220.92C59.668 221.987 59.2147 223.693 59.2147 226.027V269.36C59.2147 271.68 59.668 273.387 60.576 274.467C61.484 275.547 62.96 276.147 65.004 276.253L66.0253 276.333ZM86.2733 247.733C86.2733 243.64 86.9266 239.787 88.232 236.16C89.5373 232.52 91.4947 229.333 94.1067 226.573C96.7173 223.827 99.952 221.64 103.812 220.013C107.672 218.4 112.156 217.6 117.264 217.6C122.372 217.6 126.843 218.4 130.673 220.013C134.505 221.64 137.727 223.827 140.337 226.573C142.948 229.333 144.907 232.52 146.212 236.16C147.517 239.787 148.169 243.64 148.169 247.733C148.169 251.813 147.517 255.68 146.212 259.307C144.907 262.947 142.948 266.133 140.337 268.893C137.727 271.64 134.505 273.827 130.673 275.44C126.843 277.067 122.372 277.867 117.264 277.867C112.156 277.867 107.672 277.067 103.812 275.44C99.952 273.827 96.7173 271.64 94.1067 268.893C91.4947 266.133 89.5373 262.947 88.232 259.307C86.9266 255.68 86.2733 251.813 86.2733 247.733ZM96.8306 247.733C96.8306 251.48 97.256 255.027 98.108 258.373C98.9587 261.72 100.236 264.667 101.939 267.187C103.641 269.707 105.771 271.72 108.324 273.187C110.879 274.667 113.831 275.4 117.179 275.4C120.528 275.4 123.464 274.667 125.991 273.187C128.517 271.72 130.617 269.707 132.292 267.187C133.965 264.667 135.228 261.72 136.08 258.373C136.932 255.027 137.357 251.48 137.357 247.733C137.357 243.987 136.932 240.44 136.08 237.093C135.228 233.747 133.965 230.8 132.292 228.28C130.617 225.747 128.517 223.747 125.991 222.28C123.464 220.8 120.528 220.067 117.179 220.067C113.831 220.067 110.879 220.8 108.324 222.28C105.771 223.747 103.641 225.747 101.939 228.28C100.236 230.8 98.9587 233.747 98.108 237.093C97.256 240.44 96.8306 243.987 96.8306 247.733ZM222.227 218.013L222.652 218.96L221.545 219.04C219.501 219.16 217.515 219.693 215.585 220.653C213.656 221.627 211.584 223.133 209.371 225.173L193.364 240.667C194.5 242.147 196.273 244.413 198.685 247.48C201.097 250.547 204.007 254.2 207.412 258.467C209.967 261.693 212.223 264.427 214.181 266.64C216.139 268.853 217.884 270.64 219.416 272C220.949 273.36 222.325 274.36 223.545 274.973C224.767 275.6 225.944 275.92 227.079 275.92V277.787H223.759C221.375 277.787 219.176 277.56 217.16 277.107C215.145 276.653 213.201 275.92 211.328 274.893C209.455 273.867 207.625 272.547 205.836 270.933C204.049 269.32 202.248 267.373 200.431 265.107C199.181 263.573 197.749 261.787 196.131 259.733C194.513 257.693 192.967 255.76 191.491 253.947C189.788 251.787 188.029 249.6 186.212 247.387L184.68 245.44V269.36C184.68 271.68 185.133 273.387 186.043 274.467C186.951 275.547 188.427 276.147 190.469 276.253L191.491 276.333V277.36H168.417V276.333L169.44 276.253C171.484 276.147 172.959 275.547 173.867 274.467C174.775 273.387 175.229 271.68 175.229 269.36V226.027C175.229 223.693 174.775 221.987 173.867 220.92C172.959 219.84 171.484 219.24 169.44 219.12L168.417 219.04V218.013H191.491V219.04L190.469 219.12C188.427 219.24 186.951 219.84 186.043 220.92C185.133 221.987 184.68 223.693 184.68 226.027V245.44L205.88 224.747C209.399 221.173 209.711 219.293 206.816 219.12L206.049 219.04V218.013H222.227ZM301.136 218.013L301.561 218.96L300.455 219.04C298.411 219.16 296.424 219.693 294.495 220.653C292.565 221.627 290.493 223.133 288.28 225.173L272.273 240.667C273.409 242.147 275.183 244.413 277.595 247.48C280.007 250.547 282.916 254.2 286.321 258.467C288.876 261.693 291.132 264.427 293.091 266.64C295.048 268.853 296.793 270.64 298.327 272C299.86 273.36 301.235 274.36 302.455 274.973C303.676 275.6 304.853 275.92 305.989 275.92V277.787H302.668C300.285 277.787 298.085 277.56 296.069 277.107C294.055 276.653 292.112 275.92 290.239 274.893C288.365 273.867 286.535 272.547 284.745 270.933C282.959 269.32 281.157 267.373 279.34 265.107C278.092 263.573 276.659 261.787 275.04 259.733C273.423 257.693 271.876 255.76 270.4 253.947C268.697 251.787 266.939 249.6 265.121 247.387L263.589 245.44V269.36C263.589 271.68 264.043 273.387 264.952 274.467C265.86 275.547 267.336 276.147 269.379 276.253L270.4 276.333V277.36H247.328V276.333L248.349 276.253C250.393 276.147 251.868 275.547 252.776 274.467C253.685 273.387 254.139 271.68 254.139 269.36V226.027C254.139 223.693 253.685 221.987 252.776 220.92C251.868 219.84 250.393 219.24 248.349 219.12L247.328 219.04V218.013H270.4V219.04L269.379 219.12C267.336 219.24 265.86 219.84 264.952 220.92C264.043 221.987 263.589 223.693 263.589 226.027V245.44L284.789 224.747C288.308 221.173 288.62 219.293 285.725 219.12L284.959 219.04V218.013H301.136" fill="#363636"/>
<path d="M42.2092 318.84V303.6H52.4452V306.2H45.1706V310.12H51.2239V312.533H45.1706V318.84H42.2092ZM76.4492 318.84V303.6H79.4119V318.84H76.4492ZM107.471 309.067V318.84H104.509V303.6H106.805L114.747 313.6V303.627H117.708V318.84H115.305L107.471 309.067ZM147.141 303.6H149.76L155.555 318.84H152.507L151.091 315.04H145.768L144.373 318.84H141.325L147.141 303.6ZM150.553 312.96L148.451 306.974L146.261 312.96H150.553ZM182.112 309.067V318.84H179.151V303.6H181.447L189.388 313.6V303.627H192.349V318.84H189.945L182.112 309.067ZM216.524 311.107C216.524 310.187 216.693 309.267 217.028 308.347C217.365 307.44 217.855 306.627 218.499 305.92C219.144 305.2 219.929 304.627 220.86 304.174C221.791 303.734 222.848 303.507 224.036 303.507C225.439 303.507 226.651 303.827 227.673 304.44C228.697 305.054 229.459 305.854 229.959 306.84L227.684 308.413C227.484 307.973 227.24 307.613 226.955 307.32C226.669 307.027 226.361 306.8 226.032 306.627C225.703 306.453 225.36 306.333 225.003 306.253C224.644 306.173 224.293 306.133 223.951 306.133C223.205 306.133 222.559 306.28 222.008 306.587C221.457 306.88 221 307.267 220.635 307.747C220.269 308.227 219.993 308.773 219.808 309.387C219.621 309.987 219.529 310.6 219.529 311.2C219.529 311.867 219.636 312.52 219.851 313.133C220.065 313.76 220.369 314.307 220.764 314.787C221.156 315.253 221.628 315.627 222.179 315.92C222.731 316.2 223.335 316.347 223.993 316.347C224.336 316.347 224.695 316.307 225.067 316.213C225.439 316.133 225.792 316 226.128 315.813C226.464 315.627 226.776 315.387 227.061 315.093C227.348 314.8 227.576 314.44 227.748 314.027L230.175 315.427C229.931 316 229.584 316.507 229.133 316.933C228.683 317.373 228.175 317.747 227.609 318.04C227.044 318.347 226.44 318.573 225.796 318.733C225.152 318.893 224.523 318.96 223.907 318.96C222.82 318.96 221.825 318.733 220.924 318.28C220.021 317.827 219.247 317.227 218.595 316.48C217.944 315.747 217.436 314.907 217.072 313.974C216.707 313.04 216.524 312.08 216.524 311.107V311.107ZM264.672 316.24V318.84H254.092V303.6H264.479V306.2H257.053V309.867H263.471V312.267H257.053V316.24H264.672Z" fill="black"/>
<path fill-rule="evenodd" clip-rule="evenodd" d="M117.616 65.3201L99.2827 69.0134L91.464 81.5467L72.4307 101.667L106.172 87.1868L122.669 84.9735L117.616 65.3201" fill="#2E5794"/>
<path fill-rule="evenodd" clip-rule="evenodd" d="M164.569 52.8667C165.983 52.8667 180.651 53.2933 180.651 53.2933L169.889 67.7334L163.128 62.0535L164.569 52.8667Z" fill="#C4FAF8"/>
<path fill-rule="evenodd" clip-rule="evenodd" d="M180.651 53.2933L163.135 62.0535L164.572 52.8402L180.651 53.2933Z" fill="#4F8CF8"/>
<path fill-rule="evenodd" clip-rule="evenodd" d="M201.06 100.44L194.728 105.08L179.621 100.28L179.675 86.6535L201.06 100.44Z" fill="#C4FAF8"/>
<path fill-rule="evenodd" clip-rule="evenodd" d="M194.191 104.907L197.293 118.454L195.209 120.52L171.464 120.693L179.621 100.28L194.191 104.907" fill="#87E6FA"/>
<path fill-rule="evenodd" clip-rule="evenodd" d="M179.621 100.28L147.964 114.174L171.464 120.693L179.621 100.28Z" fill="#61ADD9"/>
<path fill-rule="evenodd" clip-rule="evenodd" d="M179.675 86.6535L160.465 95.4934L154.223 102.347L147.964 114.174L179.621 100.28L179.675 86.6535" fill="#87D6FA"/>
<path fill-rule="evenodd" clip-rule="evenodd" d="M163.135 62.0533L141.663 85.6932L160.464 95.4932L179.675 86.6533L178.976 75.3734L163.135 62.0533" fill="#7DCFFA"/>
<path fill-rule="evenodd" clip-rule="evenodd" d="M170.788 82.4931L156.853 77.4132L164.077 85.7598L170.788 82.4931Z" fill="white"/>
<path fill-rule="evenodd" clip-rule="evenodd" d="M118.864 119.827L122.669 84.9735L141.663 85.6933L118.864 119.827Z" fill="#61ABFA"/>
<path fill-rule="evenodd" clip-rule="evenodd" d="M88.54 70.4265L116.861 66.6932L163.135 62.0533L163.185 61.7333L163.237 61.4L163.288 61.0666L163.34 60.7466L163.391 60.4132L163.443 60.0932L163.493 59.7598L163.544 59.4265L163.595 59.1067L163.647 58.7734L163.699 58.4401L163.749 58.12L163.8 57.7867L163.852 57.4666L163.904 57.1333L163.953 56.8L164.005 56.4799L164.056 56.1466L164.107 55.8132L164.16 55.4932L164.209 55.1598L164.261 54.8265L164.312 54.5067L164.364 54.1734L164.415 53.8533L164.465 53.52L164.517 53.1867L164.569 52.8666L164.62 52.5333L164.671 52.2132L164.721 51.8799L164.773 51.5466L164.824 51.2265L164.876 50.8932L164.927 50.5598L164.979 50.2401L165.029 49.9067L165.08 49.5734L165.131 49.2533L165.183 48.92L165.235 48.5867L165.285 48.2666L165.336 47.9333L165.388 47.6132L165.439 47.2799L165.491 46.9466L165.54 46.6265L165.593 46.2932L165.644 45.9598L165.695 45.6401L165.745 45.3067L165.797 44.9734L165.849 44.6533L165.899 44.32L165.951 43.9999L166.003 43.6666L166.053 43.3333L166.104 43.0132L166.155 42.6799L166.207 42.3598L166.257 42.0265L166.308 41.6932L166.36 41.3734L166.412 41.0401C132.84 41.4534 103.7 53.5598 88.54 70.4265" fill="#1C4082"/>
<path fill-rule="evenodd" clip-rule="evenodd" d="M163.135 62.0535L141.663 85.6934L122.669 84.9736L116.861 66.6934L139.931 55.3202L150.121 55.2934L163.135 62.0535Z" fill="#5294D9"/>
<path fill-rule="evenodd" clip-rule="evenodd" d="M106.172 87.1867L71.4172 130.24V133.16L100.536 116.64L106.172 87.1867Z" fill="#294A7A"/>
<path fill-rule="evenodd" clip-rule="evenodd" d="M152.944 143.947L131.071 147.574L147.964 114.174L161.567 117.987C158.003 124.134 153.257 133.32 152.944 143.947" fill="#A1EDFA"/>
<path fill-rule="evenodd" clip-rule="evenodd" d="M141.663 85.6934L139.901 103.427L147.964 114.174L160.465 95.4934L141.663 85.6934Z" fill="#69B5F8"/>
<path fill-rule="evenodd" clip-rule="evenodd" d="M118.864 119.827L131.071 147.574L147.964 114.174L118.864 119.827Z" fill="#427DB5"/>
<path fill-rule="evenodd" clip-rule="evenodd" d="M118.864 119.826L95.0308 152.88L131.071 147.573L118.864 119.826Z" fill="#305999"/>
<path fill-rule="evenodd" clip-rule="evenodd" d="M100.536 116.64L88.7266 152.24L93.5052 154.987L118.864 119.827L100.536 116.64" fill="#427DB5"/>
<path fill-rule="evenodd" clip-rule="evenodd" d="M131.071 147.573L142.604 157.907L157.744 163.146C154.024 156.48 152.767 149.973 152.944 143.946L131.071 147.573Z" fill="#87E6FA"/>
<path fill-rule="evenodd" clip-rule="evenodd" d="M131.071 147.574L130.975 164.613L132.317 177.4L133.493 178.08L157.744 163.147L131.071 147.574" fill="#73BFF8"/>
<path fill-rule="evenodd" clip-rule="evenodd" d="M153.44 189.6L157.744 163.147C160.676 168.4 165.136 173.773 171.635 179.093L153.44 189.6" fill="#264591"/>
<path fill-rule="evenodd" clip-rule="evenodd" d="M157.744 163.147L153.44 189.6L133.493 178.08L157.744 163.147Z" fill="#1C4082"/>
<path fill-rule="evenodd" clip-rule="evenodd" d="M109.521 150.746L108.959 163.92L93.5054 154.987L95.0307 152.88L109.521 150.746Z" fill="#366996"/>
<path fill-rule="evenodd" clip-rule="evenodd" d="M77.2253 129.56L86.3 150.827L88.7267 152.24L100.536 116.64L77.2253 129.56Z" fill="#366996"/>
<path fill-rule="evenodd" clip-rule="evenodd" d="M81.7879 97.6534L76.6426 123.773L106.172 87.1867L81.7879 97.6534Z" fill="#366996"/>
<path fill-rule="evenodd" clip-rule="evenodd" d="M164.107 55.8132L164.16 55.4932L164.209 55.1598L164.261 54.8265L164.312 54.5067L164.364 54.1734L164.415 53.8533L164.465 53.52L164.517 53.1867L164.569 52.8666L164.62 52.5333L164.671 52.2132L164.721 51.8799L164.773 51.5466L164.824 51.2265L164.876 50.8932L164.927 50.5598L164.979 50.2401L165.029 49.9067L165.08 49.5734L165.131 49.2533L165.183 48.92L165.235 48.5867L165.285 48.2666L165.336 47.9333L165.388 47.6132L165.439 47.2799L165.491 46.9466L165.54 46.6265L165.593 46.2932L165.644 45.9598L165.695 45.6401L165.745 45.3067L165.797 44.9734L165.849 44.6533L165.899 44.32L165.951 44L166.003 43.6666L166.053 43.3333L166.104 43.0132L166.155 42.6799L166.207 42.3598L166.257 42.0265L166.308 41.6932L166.36 41.3734L166.412 41.0401C153.372 41.2001 141.719 43.0933 131.452 46.3333L139.931 55.32L157.393 55.6799L164.107 55.8132" fill="#2B54B2"/>
<path fill-rule="evenodd" clip-rule="evenodd" d="M122.669 84.9734L100.536 116.64L105.613 138.2L118.864 119.827L122.669 84.9734Z" fill="#3B6EBF"/>
<path fill-rule="evenodd" clip-rule="evenodd" d="M166.308 41.6933L149.84 55.5201L163.135 62.0535L164.107 55.8134L166.308 41.6933Z" fill="#A1EDFA"/>
<path fill-rule="evenodd" clip-rule="evenodd" d="M141.663 85.6933L118.864 119.827L147.964 114.174L141.312 102.987L141.663 85.6933" fill="#5C9BF8"/>
<path fill-rule="evenodd" clip-rule="evenodd" d="M91.4639 81.5467L106.172 87.1868L71.4172 102.374V101.027C77.6292 94.7733 85.8426 87.4934 91.4639 81.5467" fill="#294A7A"/>
<path fill-rule="evenodd" clip-rule="evenodd" d="M195.209 120.52L171.464 120.693L189.907 125.787L195.209 120.52Z" fill="#1C4082"/>
<path fill-rule="evenodd" clip-rule="evenodd" d="M106.172 87.1868L102.241 92.2L100.536 116.64L122.669 84.9735L106.172 87.1868" fill="#2B54B2"/>
<path fill-rule="evenodd" clip-rule="evenodd" d="M132.395 177.44L131.071 147.574L111.537 165.4L112.429 165.92L132.395 177.44" fill="#427DB5"/>
<path fill-rule="evenodd" clip-rule="evenodd" d="M149.84 55.5202L141.661 85.6934L163.135 62.0535L149.84 55.5202Z" fill="#6BB5FA"/>
<path fill-rule="evenodd" clip-rule="evenodd" d="M141.313 102.987L118.865 119.827L147.964 114.174L141.313 102.987Z" fill="#4080D9"/>
<path fill-rule="evenodd" clip-rule="evenodd" d="M208.66 105.814L200.479 100.067L194.191 104.907L197.293 118.454L208.66 105.814Z" fill="#1C4082"/>
<path fill-rule="evenodd" clip-rule="evenodd" d="M131.071 147.574L121.769 171.307L132.395 177.44L131.071 147.574Z" fill="#294A7A"/>
<path fill-rule="evenodd" clip-rule="evenodd" d="M108.959 163.92L109.521 150.747L131.071 147.574L111.537 165.4L108.959 163.92" fill="#5496D9"/>
<path fill-rule="evenodd" clip-rule="evenodd" d="M149.84 55.5202L122.669 84.9736L141.663 85.6934L149.84 55.5202Z" fill="#427DB5"/>
<path fill-rule="evenodd" clip-rule="evenodd" d="M125.433 134.76L147.964 114.174L135.28 139.254L131.071 147.574L125.433 134.76" fill="#94DEFA"/>
<path fill-rule="evenodd" clip-rule="evenodd" d="M131.071 147.574L161.567 117.987C158.003 124.134 153.257 133.32 152.944 143.947L131.071 147.574" fill="#C4FAF8"/>
<path fill-rule="evenodd" clip-rule="evenodd" d="M153.44 189.6L146.597 170.013L157.744 163.147L153.44 189.6Z" fill="#407AB5"/>
<path fill-rule="evenodd" clip-rule="evenodd" d="M93.5054 154.987L95.0307 152.88L109.521 150.746L108.959 163.92L93.5054 154.987Z" fill="#295478"/>
<path fill-rule="evenodd" clip-rule="evenodd" d="M153.44 0.173546L194.453 23.8535L235.464 47.5334V142.24L194.453 165.92L153.44 189.6L112.429 165.92L71.4172 142.24V94.8801V47.5334L112.429 23.8535L153.44 0.173546ZM153.44 12.4267L189.144 33.0402L224.845 53.6535V136.107L189.144 156.72L163.651 171.44C155.183 162.907 151.983 148.333 152.944 143.947L146.972 156.853L139.059 161.493L136.457 156.147L131.503 157.307L131.071 147.574L122.999 144.693L125.433 134.76L122.149 127.293L107.144 136.08L102.721 125.92L89.5292 131.16L100.536 116.64L102.241 92.2001L85.1972 113.174L87.6852 95.1202L82.0359 91.5202V53.6535L117.739 33.0402L153.44 12.4267Z" fill="#213D66"/>
</svg>
