<svg width="86" height="21" viewBox="0 0 86 21" fill="none" xmlns="http://www.w3.org/2000/svg">
<path d="M30.3218 11.5278L29.8098 13.1103H29.7671C29.6817 12.7535 29.5254 12.2105 29.2693 11.5588L26.5245 4.03398H23.8364V16.0272H25.6143V8.62647C25.6143 8.16102 25.6143 7.6335 25.6 6.98186C25.5859 6.65605 25.5573 6.4078 25.5432 6.22162H25.5859C25.6711 6.68707 25.7707 7.0284 25.8418 7.24562L29.1414 15.9962H30.3929L33.664 7.16805C33.7351 6.96634 33.8063 6.56295 33.8774 6.22162H33.9201C33.8774 7.10599 33.8489 7.89726 33.8347 8.37823V15.9806H35.7262V4.00296H33.1378L30.3218 11.5278ZM37.5182 7.38526H39.3671V15.9806H37.5182V7.38526ZM38.4569 3.75471C38.144 3.75471 37.8881 3.87884 37.6747 4.09605C37.4614 4.31325 37.3476 4.59252 37.3476 4.93387C37.3476 5.25967 37.4614 5.53895 37.6747 5.75616C37.8881 5.97337 38.144 6.08198 38.4569 6.08198C38.7698 6.08198 39.0401 5.95786 39.2391 5.75616C39.4525 5.53895 39.5663 5.25967 39.5663 4.93387C39.5663 4.60805 39.4525 4.32878 39.2391 4.09605C39.0542 3.87884 38.784 3.75471 38.4569 3.75471ZM45.9236 7.30768C45.5822 7.23011 45.2267 7.18356 44.8854 7.18356C44.0463 7.18356 43.2783 7.38526 42.6382 7.78865C41.9982 8.19204 41.4863 8.75058 41.1591 9.44877C40.8178 10.1625 40.6472 10.9848 40.6472 11.9312C40.6472 12.7535 40.8178 13.4827 41.145 14.1499C41.472 14.8015 41.9271 15.3291 42.5387 15.6858C43.1218 16.0428 43.8045 16.2289 44.5725 16.2289C45.4543 16.2289 46.208 16.0272 46.8053 15.6548L46.8196 15.6393V13.7775L46.7485 13.8396C46.4782 14.0567 46.1653 14.243 45.8524 14.3515C45.5254 14.4757 45.2267 14.5378 44.9706 14.5378C44.2312 14.5378 43.648 14.305 43.2356 13.793C42.8089 13.2965 42.5956 12.6139 42.5956 11.7605C42.5956 10.8762 42.8089 10.178 43.2497 9.66599C43.6907 9.15398 44.2738 8.89023 44.9849 8.89023C45.5822 8.89023 46.1937 9.10744 46.7485 9.54187L46.8196 9.60393V7.6335L46.8053 7.61798C46.5636 7.50938 46.2934 7.38526 45.9236 7.30768ZM52.0249 7.24562C51.5698 7.24562 51.1431 7.40077 50.7734 7.72659C50.4605 8.00586 50.2471 8.40925 50.0622 8.89023H50.0481V7.38526H48.1991V15.9806H50.0481V11.5899C50.0481 10.8451 50.1903 10.2245 50.5032 9.77459C50.8161 9.30913 51.2142 9.0764 51.6977 9.0764C51.8685 9.0764 52.0392 9.12295 52.2525 9.15399C52.4516 9.21605 52.5938 9.27811 52.6933 9.35568L52.7645 9.41774V7.40077L52.7218 7.38526C52.5938 7.29216 52.3378 7.24562 52.0249 7.24562ZM57.0596 7.19907C55.7654 7.19907 54.7271 7.61798 54.0018 8.44029C53.2623 9.2626 52.9067 10.3952 52.9067 11.8226C52.9067 13.1569 53.2764 14.243 53.9876 15.0343C54.6987 15.81 55.6658 16.2133 56.8747 16.2133C58.1405 16.2133 59.1502 15.7944 59.8755 14.9567C60.6151 14.1189 60.9707 13.0017 60.9707 11.6209C60.9707 10.2556 60.6294 9.1695 59.9325 8.37823C59.2641 7.58695 58.2827 7.19907 57.0596 7.19907ZM58.5386 13.8085C58.1973 14.2896 57.657 14.5222 56.9885 14.5222C56.3201 14.5222 55.7796 14.2896 55.3956 13.7775C55.0116 13.2965 54.8267 12.5984 54.8267 11.714C54.8267 10.7986 55.0257 10.1004 55.3956 9.60393C55.7796 9.10744 56.3058 8.85919 56.9742 8.85919C57.6284 8.85919 58.1405 9.09192 58.5102 9.57289C58.8801 10.0539 59.0791 10.752 59.0791 11.6674C59.0507 12.5983 58.8942 13.3276 58.5386 13.8085ZM65.0951 10.9537C64.512 10.69 64.1423 10.4883 63.9715 10.3176C63.8293 10.1625 63.7583 9.94526 63.7583 9.66599C63.7583 9.43326 63.8436 9.20052 64.0569 9.04538C64.2703 8.89023 64.512 8.81264 64.8676 8.81264C65.1805 8.81264 65.5076 8.8747 65.8205 8.9678C66.1334 9.06089 66.4178 9.20052 66.6453 9.38671L66.7165 9.44877V7.55592L66.6738 7.5404C66.4604 7.44732 66.1761 7.35422 65.8347 7.27665C65.4934 7.21459 65.1805 7.18356 64.9244 7.18356C64.0426 7.18356 63.3173 7.41628 62.7484 7.92828C62.1795 8.40925 61.9093 9.06089 61.9093 9.82114C61.9093 10.2245 61.9663 10.5814 62.0942 10.8762C62.2222 11.171 62.4071 11.4502 62.6632 11.683C62.9191 11.9002 63.2889 12.1484 63.8009 12.3811C64.2276 12.5828 64.5547 12.738 64.7538 12.8621C64.9529 12.9862 65.0809 13.1259 65.1805 13.2345C65.2516 13.3586 65.2943 13.5137 65.2943 13.7154C65.2943 14.2896 64.896 14.5688 64.0853 14.5688C63.7725 14.5688 63.4453 14.5067 63.0613 14.3671C62.6773 14.2274 62.3219 14.0257 62.0231 13.793L61.952 13.731V15.7014L61.9947 15.7168C62.2649 15.8565 62.592 15.9496 62.9902 16.0582C63.3885 16.1358 63.744 16.1979 64.0569 16.1979C65.0098 16.1979 65.7921 15.9651 66.3467 15.4532C66.9155 14.9567 67.2142 14.3205 67.2142 13.4982C67.2142 12.9242 67.072 12.4122 66.7591 12.0243C66.3467 11.6519 65.8347 11.264 65.0951 10.9537ZM72.0925 7.19907C70.7983 7.19907 69.76 7.61798 69.0347 8.44029C68.3094 9.2626 67.9396 10.3952 67.9396 11.8226C67.9396 13.1569 68.3094 14.243 69.0204 15.0343C69.7316 15.81 70.6986 16.2133 71.9076 16.2133C73.1734 16.2133 74.1831 15.7944 74.9084 14.9567C75.648 14.1189 76.0036 13.0017 76.0036 11.6209C76.0036 10.2556 75.6622 9.1695 74.9654 8.37823C74.2969 7.58695 73.3156 7.19907 72.0925 7.19907ZM73.5574 13.8085C73.216 14.2896 72.6756 14.5222 72.0071 14.5222C71.3245 14.5222 70.7983 14.2896 70.4143 13.7775C70.0303 13.2965 69.8454 12.5984 69.8454 11.714C69.8454 10.7986 70.0444 10.1004 70.4143 9.60393C70.7983 9.10744 71.3245 8.85919 71.9928 8.85919C72.6329 8.85919 73.1591 9.09192 73.5289 9.57289C73.8987 10.0539 74.0977 10.752 74.0977 11.6674C74.0977 12.5983 73.9129 13.3276 73.5574 13.8085ZM85.888 9.04538V7.38526H84.0249V4.84077L83.968 4.85628L82.2044 5.43035L82.1617 5.44587V7.38526H79.3742V6.29919C79.3742 5.80271 79.488 5.41483 79.6871 5.16659C79.8862 4.91834 80.1849 4.79423 80.5547 4.79423C80.8107 4.79423 81.0809 4.85628 81.3796 4.99593L81.4507 5.04247V3.28926L81.408 3.27375C81.152 3.18065 80.8107 3.11859 80.3698 3.11859C79.8151 3.11859 79.3315 3.25823 78.8907 3.49096C78.4499 3.75471 78.1227 4.11156 77.8808 4.59254C77.6392 5.05799 77.5111 5.58549 77.5111 6.19059V7.38526H76.2169V9.02986H77.5111V15.9806H79.3742V9.04538H82.1617V13.4672C82.1617 15.2825 82.944 16.1979 84.5085 16.1979C84.7644 16.1979 85.0346 16.1513 85.2907 16.1048C85.561 16.0428 85.76 15.9651 85.8737 15.9031L85.888 15.8875V14.2274L85.8169 14.2896C85.7031 14.3671 85.6035 14.4291 85.4329 14.4757C85.2907 14.5222 85.1627 14.5378 85.0632 14.5378C84.6933 14.5378 84.4374 14.4447 84.2525 14.2119C84.0818 13.9948 83.9964 13.6379 83.9964 13.1103V9.04538H85.888Z" fill="#737373"/>
<path d="M0 0H8.71822V9.51078H0V0Z" fill="#F25022"/>
<path d="M9.62842 0H18.3466V9.51078H9.62842V0Z" fill="#7FBA00"/>
<path d="M0 10.5038H8.71822V20.0145H0V10.5038Z" fill="#00A4EF"/>
<path d="M9.62842 10.5038H18.3466V20.0145H9.62842V10.5038Z" fill="#FFB900"/>
</svg>
