<svg width="148" height="20" viewBox="0 0 148 20" fill="none" xmlns="http://www.w3.org/2000/svg">
<path d="M34.4865 7.3945H21.9743L21.5107 7.77515V19.9966H24.9744V15.4136L25.3051 15.0884H34.487C36.8053 15.0884 37.8923 14.4035 37.8923 12.6462V9.84007C37.8918 8.07988 36.8053 7.3945 34.4865 7.3945ZM34.4865 11.9128C34.4865 12.7407 33.9878 12.9127 32.9009 12.9127H25.3429L24.9739 12.5188V9.90081L25.3046 9.56867H32.9009C33.9878 9.56867 34.4865 9.73865 34.4865 10.5705V11.9128Z" fill="#005288"/>
<path d="M44.2081 9.70661L47.1885 14.5013L47.0235 14.9657H40.432L38.7495 17.2382H48.561L49.2411 17.6929L50.7643 19.9999H54.7282L46.0397 7.23851" fill="#005288"/>
<path d="M83.6225 17.5174V14.1253L83.979 13.7873H90.6101V11.6273H80.1003V19.9992H95.6033V17.8494H83.9945" fill="#005288"/>
<path d="M95.7671 7.3945H80.1003V9.76952H95.7671V7.3945Z" fill="#005288"/>
<path d="M62.6267 9.64363H75.2482C75.0537 7.88148 74.0578 7.39256 71.5315 7.39256H62.4924C59.6417 7.39256 58.7324 8.00345 58.7324 10.3721V17.0175C58.7324 19.3886 59.6417 19.9996 62.4924 19.9996H71.5315C74.0949 19.9996 75.0764 19.471 75.1434 17.6432H62.6267L62.2554 17.2596V9.90034" fill="#005288"/>
<path d="M13.088 12.3056H3.90602L3.63563 11.9788V9.82228L3.90468 9.59398H16.2827L16.4518 9.13986C16.0302 7.94891 14.9383 7.39337 12.9109 7.39337H4.31249C1.46361 7.39337 0.552955 8.00428 0.552955 10.3729V11.7662C0.552955 14.1378 1.46361 14.7478 4.31249 14.7478H13.4739L13.7617 15.025V17.2794L13.5271 17.6312H3.04755V17.6204H0.302648C0.302648 17.6204 -0.0114649 17.7933 0.000582008 17.8742C0.234827 19.5311 1.26283 20.0004 3.72398 20.0004H13.088C15.9364 20.0004 16.8743 19.3894 16.8743 17.0183V15.2826C16.8743 12.9155 15.9364 12.3056 13.088 12.3056Z" fill="#005288"/>
<path d="M105.622 7.34268H100.469L100.189 7.92713L105.912 12.5081C106.997 11.8189 108.176 11.1203 109.46 10.431" fill="#005288"/>
<path d="M110.24 15.9716L115.271 19.9996H120.488L120.704 19.4661L113.192 13.4291C112.194 14.233 111.209 15.0819 110.24 15.9716Z" fill="#005288"/>
<path d="M104.856 19.9907H100.193L99.7986 19.3132C102.969 15.9519 117.15 1.54367 147.974 0C147.974 0 122.101 0.958237 104.856 19.9907Z" fill="#A7A9AC"/>
</svg>
