<svg width="50" height="40" viewBox="0 0 50 40" fill="none" xmlns="http://www.w3.org/2000/svg">
<path d="M44.8812 9.95792C44.9117 10.3919 44.9117 10.8259 44.9117 11.2638C44.9117 24.609 34.5928 40 15.7241 40V39.9921C10.1503 40 4.69225 38.4282 0 35.4644C0.81048 35.5604 1.62502 35.6083 2.4416 35.6103C7.06073 35.6143 11.5478 34.0883 15.1818 31.2787C10.7922 31.1965 6.94292 28.3789 5.59819 24.265C7.13589 24.557 8.7203 24.4971 10.2295 24.0911C5.44384 23.1391 2.00081 18.9994 2.00081 14.1917C2.00081 14.1477 2.00081 14.1057 2.00081 14.0637C3.42678 14.8456 5.02336 15.2796 6.65651 15.3276C2.1491 12.3618 0.759698 6.45814 3.48163 1.84241C8.68982 8.15203 16.3741 11.9878 24.6232 12.3938C23.7964 8.88599 24.9259 5.21022 27.5909 2.74435C31.7226 -1.07941 38.2206 -0.883421 42.1043 3.18233C44.4018 2.73636 46.6038 1.90641 48.6187 0.730481C47.853 3.06835 46.2501 5.05423 44.1092 6.31615C46.1425 6.08014 48.1292 5.5442 50 4.72623C48.6228 6.75812 46.8881 8.528 44.8812 9.95792Z" fill="#1D9BF0"/>
</svg>
