<svg width="70" height="20" viewBox="0 0 70 20" fill="none" xmlns="http://www.w3.org/2000/svg">
<path d="M30.183 13.335L29.4297 15.8886C29.4198 15.93 29.3973 15.9664 29.3659 15.9917C29.3345 16.017 29.2961 16.0296 29.2572 16.0275H27.4286C27.3192 16.0275 27.2869 15.9581 27.3038 15.8581L30.4449 5.89282C30.5496 5.55369 30.6016 5.19765 30.599 4.83957C30.5977 4.81011 30.6067 4.78122 30.6241 4.75886C30.6417 4.73648 30.6663 4.72235 30.693 4.71935H33.2055C33.2841 4.71935 33.3149 4.73628 33.3319 4.82264L36.8966 15.8717C36.9274 15.9581 36.912 16.0275 36.818 16.0275H34.7799C34.7425 16.0345 34.7041 16.0261 34.672 16.0039C34.6399 15.9817 34.6163 15.9472 34.6059 15.9072L33.8048 13.335H30.183ZM33.2302 11.176C32.9221 10.0364 32.2874 7.94854 31.9901 6.72255H31.9747C31.722 7.87911 31.1567 9.77057 30.7423 11.176H33.2302Z" fill="#FA0F00"/>
<path d="M37.1477 11.8144C37.1477 9.34552 38.8285 7.27457 41.703 7.27457C41.8278 7.27457 41.9849 7.29151 42.2207 7.30844V3.90822C42.2189 3.89197 42.2206 3.87551 42.2255 3.86005C42.2303 3.84461 42.2384 3.83057 42.2489 3.819C42.2593 3.80743 42.2721 3.79864 42.2861 3.79326C42.3003 3.7879 42.3152 3.78609 42.33 3.788H44.3096C44.3882 3.788 44.4036 3.82186 44.4036 3.89129V14.0936C44.3994 14.5147 44.4205 14.9356 44.4667 15.3535C44.4667 15.4399 44.4513 15.4754 44.3573 15.5093C43.3786 15.9665 42.3259 16.2015 41.2624 16.2001C38.9378 16.2001 37.1477 14.7507 37.1477 11.8144ZM42.2207 9.36415C42.0334 9.29684 41.8366 9.26758 41.6398 9.27779C40.4305 9.27779 39.3938 10.0889 39.3938 11.6942C39.3938 13.4028 40.2889 14.1461 41.4828 14.1461C41.7322 14.1576 41.9817 14.1228 42.2207 14.0428V9.36415Z" fill="#FA0F00"/>
<path d="M53.3986 11.6942C53.3986 14.4035 51.7964 16.2002 49.5349 16.2002C46.8484 16.2002 45.656 13.9735 45.656 11.7467C45.656 9.29474 47.1472 7.27458 49.5658 7.27458C52.0954 7.27458 53.3986 9.36417 53.3986 11.6942ZM47.8697 11.7111C47.8697 13.2351 48.5136 14.197 49.5643 14.197C50.4763 14.197 51.1664 13.335 51.1664 11.7467C51.1664 10.392 50.6642 9.2778 49.4719 9.2778C48.5614 9.2778 47.8697 10.1753 47.8697 11.7111Z" fill="#FA0F00"/>
<path d="M56.7002 3.78801C56.8249 3.78801 56.8542 3.80494 56.8542 3.92516V7.46423C57.2843 7.33769 57.7277 7.27393 58.1728 7.27458C60.4836 7.27458 61.9425 9.06952 61.9425 11.3826C61.9425 14.6118 59.6178 16.2001 57.2316 16.2001C56.3963 16.2065 55.5652 16.0724 54.7669 15.8022C54.7391 15.7854 54.7158 15.761 54.6994 15.7313C54.683 15.7015 54.6737 15.6676 54.6729 15.6329V3.90823C54.6729 3.82187 54.7037 3.78801 54.7823 3.78801H56.7002ZM57.7785 9.31166C57.4659 9.30737 57.1543 9.35418 56.8542 9.45052V14.1376C57.0448 14.1853 57.2396 14.2081 57.4349 14.2054C58.6289 14.2054 59.7118 13.4112 59.7118 11.6163C59.715 10.0364 58.8831 9.31166 57.7832 9.31166H57.7785Z" fill="#FA0F00"/>
<path d="M65.0155 12.3681C65.0941 13.352 65.7226 14.1631 67.2616 14.1631C67.9235 14.1771 68.581 14.0417 69.1934 13.7651C69.2412 13.7313 69.2874 13.7482 69.2874 13.8515V15.4924C69.2874 15.6125 69.2566 15.6617 69.178 15.6989C68.5495 16.0275 67.8594 16.207 66.7749 16.207C63.8216 16.207 62.7864 13.9801 62.7864 11.8398C62.7864 9.4573 64.1205 7.28136 66.5868 7.28136C68.9577 7.28136 69.9005 9.30151 69.9005 11.0067C69.9116 11.3942 69.8853 11.7819 69.8219 12.1632C69.8197 12.1993 69.8057 12.2332 69.7825 12.2588C69.7593 12.2843 69.7284 12.2997 69.6957 12.3021C69.158 12.3579 68.618 12.3811 68.0781 12.3715L65.0155 12.3681ZM67.0583 10.6934C67.3201 10.704 67.5823 10.6921 67.8424 10.6579V10.5376C67.8379 10.3512 67.7996 10.1676 67.7297 9.99764C67.66 9.82765 67.56 9.67466 67.4358 9.54759C67.3116 9.42052 67.1657 9.32194 67.0063 9.25759C66.8471 9.19325 66.6778 9.16443 66.5083 9.17281C65.5193 9.17281 65.0941 9.98562 65.0001 10.6968L67.0583 10.6934Z" fill="#FA0F00"/>
<path d="M12.9604 0H20.5598V20L12.9604 0Z" fill="#FA0F00"/>
<path d="M7.60549 0H0V20L7.60549 0Z" fill="#FA0F00"/>
<path d="M10.2828 7.37109L15.1246 20H11.9512L10.5031 15.9783H6.95996L10.2828 7.37109Z" fill="#FA0F00"/>
</svg>
