<svg width="44" height="50" viewBox="0 0 44 50" fill="none" xmlns="http://www.w3.org/2000/svg">
<path d="M17.449 20.9751C16.0158 20.9751 14.8844 22.2251 14.8844 23.7501C14.8844 25.2751 16.041 26.5251 17.449 26.5251C18.8821 26.5251 20.0135 25.2751 20.0135 23.7501C20.0387 22.2251 18.8821 20.9751 17.449 20.9751ZM26.6261 20.9751C25.193 20.9751 24.0615 22.2251 24.0615 23.7501C24.0615 25.2751 25.2181 26.5251 26.6261 26.5251C28.0593 26.5251 29.1907 25.2751 29.1907 23.7501C29.1907 22.2251 28.0593 20.9751 26.6261 20.9751Z" fill="#7289DA"/>
<path d="M38.8457 0H5.15429C2.31314 0 0 2.3 0 5.15V38.95C0 41.8 2.31314 44.1 5.15429 44.1H33.6663L32.3337 39.475L35.552 42.45L38.5943 45.25L44 50V5.15C44 2.3 41.6869 0 38.8457 0ZM29.1406 32.65C29.1406 32.65 28.2354 31.575 27.4811 30.625C30.7749 29.7 32.032 27.65 32.032 27.65C31.0011 28.325 30.0206 28.8 29.1406 29.125C27.8834 29.65 26.6766 30 25.4949 30.2C23.0811 30.65 20.8686 30.525 18.9829 30.175C17.5497 29.9 16.3177 29.5 15.2869 29.1C14.7086 28.875 14.08 28.6 13.4514 28.25C13.376 28.2 13.3006 28.175 13.2251 28.125C13.1749 28.1 13.1497 28.075 13.1246 28.05C12.672 27.8 12.4206 27.625 12.4206 27.625C12.4206 27.625 13.6274 29.625 16.8206 30.575C16.0663 31.525 15.136 32.65 15.136 32.65C9.57943 32.475 7.46743 28.85 7.46743 28.85C7.46743 20.8 11.088 14.275 11.088 14.275C14.7086 11.575 18.1531 11.65 18.1531 11.65L18.4046 11.95C13.8789 13.25 11.792 15.225 11.792 15.225C11.792 15.225 12.3451 14.925 13.2754 14.5C15.9657 13.325 18.1029 13 18.9829 12.925C19.1337 12.9 19.2594 12.875 19.4103 12.875C20.944 12.675 22.6789 12.625 24.4891 12.825C26.8777 13.1 29.4423 13.8 32.0571 15.225C32.0571 15.225 30.0709 13.35 25.7966 12.05L26.1486 11.65C26.1486 11.65 29.5931 11.575 33.2137 14.275C33.2137 14.275 36.8343 20.8 36.8343 28.85C36.8343 28.85 34.6971 32.475 29.1406 32.65Z" fill="#7289DA"/>
</svg>
