<svg width="60" height="60" viewBox="0 0 60 60" fill="none" xmlns="http://www.w3.org/2000/svg">
<rect opacity="0.2" width="60" height="60" rx="30" fill="#4365D5"/>
<rect x="5" y="5" width="50" height="50" rx="25" fill="#4365D5"/>
<path d="M31.75 33.25V28.25C31.75 27.5625 31.1875 27 30.5 27H25.5V24.5H30.5C31.1875 24.5 31.75 23.9375 31.75 23.25C31.75 22.5625 31.1875 22 30.5 22H28.625C28.625 21.3125 28.0625 20.75 27.375 20.75C26.6875 20.75 26.125 21.3125 26.125 22H24.25C23.5625 22 23 22.5625 23 23.25V28.25C23 28.9375 23.5625 29.5 24.25 29.5H29.25V32H24.25C23.5625 32 23 32.5625 23 33.25C23 33.9375 23.5625 34.5 24.25 34.5H26.125C26.125 35.1875 26.6875 35.75 27.375 35.75C28.0625 35.75 28.625 35.1875 28.625 34.5H30.5C31.1875 34.5 31.75 33.9375 31.75 33.25Z" fill="white"/>
<path d="M41.5999 33.525L35.4124 39.7125L32.7624 37.0625C32.2749 36.575 31.4874 36.575 30.9999 37.0625C30.5124 37.55 30.5124 38.3375 30.9999 38.825L34.5374 42.3625C35.0249 42.85 35.8124 42.85 36.2999 42.3625L43.3749 35.2875C43.8624 34.8 43.8624 34.0125 43.3749 33.525C42.8749 33.0375 42.0874 33.0375 41.5999 33.525Z" fill="white"/>
</svg>
