<svg width="30" height="30" viewBox="0 0 30 30" fill="none" xmlns="http://www.w3.org/2000/svg">
<path d="M21.25 8.75H17.5C16.8125 8.75 16.25 9.3125 16.25 10C16.25 10.6875 16.8125 11.25 17.5 11.25H21.25C23.3125 11.25 25 12.9375 25 15C25 17.0625 23.3125 18.75 21.25 18.75H17.5C16.8125 18.75 16.25 19.3125 16.25 20C16.25 20.6875 16.8125 21.25 17.5 21.25H21.25C24.7 21.25 27.5 18.45 27.5 15C27.5 11.55 24.7 8.75 21.25 8.75ZM10 15C10 15.6875 10.5625 16.25 11.25 16.25H18.75C19.4375 16.25 20 15.6875 20 15C20 14.3125 19.4375 13.75 18.75 13.75H11.25C10.5625 13.75 10 14.3125 10 15ZM12.5 18.75H8.75C6.6875 18.75 5 17.0625 5 15C5 12.9375 6.6875 11.25 8.75 11.25H12.5C13.1875 11.25 13.75 10.6875 13.75 10C13.75 9.3125 13.1875 8.75 12.5 8.75H8.75C5.3 8.75 2.5 11.55 2.5 15C2.5 18.45 5.3 21.25 8.75 21.25H12.5C13.1875 21.25 13.75 20.6875 13.75 20C13.75 19.3125 13.1875 18.75 12.5 18.75Z" fill="#D0D5F4"/>
</svg>
