<svg width="179" height="20" viewBox="0 0 179 20" fill="none" xmlns="http://www.w3.org/2000/svg">
<path d="M0 0.0571429C0.231051 1.01423 0.692481 1.88628 1.33635 2.58265C1.98021 3.27904 2.78302 3.77435 3.66136 4.01714H9.37831L9.67122 4.14286V19.9029H13.2385V4.16571L13.5627 4.04H19.285C20.1604 3.79068 20.96 3.29317 21.6029 2.59779C22.2458 1.90243 22.7094 1.03387 22.9463 0.08V0.04H0V0.0571429ZM124.805 0.0342857H121.249V19.9486H137.536C138.308 19.6222 138.994 19.0943 139.536 18.411C140.078 17.7275 140.458 16.9096 140.643 16.0286H124.795L124.805 0.0342857ZM97.4341 3.95429C99.3276 3.38286 100.918 1.77143 101.299 0.0228571L81.3711 0.0571429V11.8H97.6748V15.9314H84.8808C83.9055 16.2076 82.995 16.7071 82.2096 17.3967C81.4241 18.0863 80.7819 18.9503 80.3251 19.9314H101.19V7.89143H84.8914V3.95429H97.4341ZM158.198 19.9371H161.733V11.9257H174.59V19.9371H178.12V7.92571L158.198 7.90286V19.9371ZM44.6424 4H58.2419C59.1327 3.76586 59.9477 3.26904 60.598 2.56372C61.2481 1.85839 61.7087 0.971599 61.9293 0H40.955C41.1778 0.970476 41.639 1.85601 42.2889 2.56097C42.9388 3.26593 43.7527 3.76353 44.6424 4ZM44.6424 11.8686H58.2419C59.1322 11.6333 59.9466 11.1361 60.5967 10.4309C61.2467 9.72578 61.7076 8.83961 61.9293 7.86857H40.955C41.1788 8.83849 41.6404 9.72342 42.2901 10.4282C42.9398 11.133 43.7532 11.6309 44.6424 11.8686ZM44.6424 19.9486H58.2419C59.1322 19.7132 59.9466 19.2161 60.5967 18.511C61.2467 17.8058 61.7076 16.9196 61.9293 15.9486H40.955C41.1783 16.9188 41.6397 17.804 42.2895 18.5089C42.9393 19.2138 43.7529 19.7115 44.6424 19.9486ZM161.34 4.01143H174.939C175.832 3.77763 176.647 3.28103 177.299 2.57572C177.95 1.87043 178.411 0.983461 178.633 0.0114286H157.653C157.875 0.982465 158.336 1.86863 158.986 2.57378C159.635 3.27892 160.45 3.77611 161.34 4.01143Z" fill="#E82127"/>
</svg>
